# xmcd
#
# Track frame offsets: 
#        182
#        11855
#        28295
#        39177
#        51542
#        69690
#        80690
#        93277
#        106380
#        119505
#        140697
#        151492
#        168027
#        181447
#        198855
#        214492
#        231040
#        245855
#        258110
#        270257
#        283107
#        295352
#        308537
#        326457
#
# Disc length: 4527 seconds
#
# Revision: 4
# Processed by: cddbd v1.5.2PL0 Copyright (c) Steve Scherf et al.
# Submitted via: ExactAudioCopyFreeDBPlugin 1.0
#
DISCID=6411ad18
DTITLE=Various Artist - Son of Stax Funk:  A Whole Nuther Strut
DYEAR=1993
DGENRE=Soul
TTITLE0=Isaac Hayes - Title Theme (Tough Guys)
TTITLE1=Sho-Nuff - Steppin' Out
TTITLE2=The Sons of Slum - What Does It Take
TTITLE3=Black Nasty - Getting Funky Round Here
TTITLE4=Shack - Watch the Dog
TTITLE5=Roy Lee Johnson - Patch it Up
TTITLE6=Hot Sauce - I'll Kill a Brick for My Man
TTITLE7=Jean Knight - Carry On
TTITLE8=The Bay-Kays - Sang and Dance
TTITLE9=Rufus Thomas - Funky Hot Grits
TTITLE10=The Forevers - Soul Town
TTITLE11=Black Nasty - Nasty Soul
TTITLE12=Sho-Nuff - Mix Match Man
TTITLE13=Isaac Hayes - Type Thang
TTITLE14=The Sons of Slum - Right On
TTITLE15=The Dramatics - The Devil is Dope
TTITLE16=Rufus Thomas - Do the Funky Chicken
TTITLE17=Israel Tolbert - Shake Your Big Hips
TTITLE18=Sir Mack Rice - Bump Meat
TTITLE19=Jean Knight - Do Me
TTITLE20=Black Nasty - Talkin' to the People
TTITLE21=The Sons of Slum - The Man
TTITLE22=Sho-Nuff - Watch Me Do It
TTITLE23=The Bar-Kays - In the Hole
EXTD=YEAR: 1993
EXTT0=
EXTT1=
EXTT2=
EXTT3=
EXTT4=
EXTT5=
EXTT6=
EXTT7=
EXTT8=
EXTT9=
EXTT10=
EXTT11=
EXTT12=
EXTT13=
EXTT14=
EXTT15=
EXTT16=
EXTT17=
EXTT18=
EXTT19=
EXTT20=
EXTT21=
EXTT22=
EXTT23=
PLAYORDER=
